<svg width="40" height="33" viewBox="0 0 40 33" fill="none" xmlns="http://www.w3.org/2000/svg">
<path fill-rule="evenodd" clip-rule="evenodd" d="M8.30814 0.727539C6.02576 0.727539 4.33695 2.72517 4.41254 4.89161C4.48509 6.97296 4.39085 9.66856 3.7122 11.8669C3.03153 14.0716 1.88034 15.4682 0 15.6475V17.6719C1.88034 17.8513 3.03153 19.2479 3.7122 21.4526C4.39085 23.6509 4.48509 26.3465 4.41254 28.4279C4.33695 30.594 6.02576 32.5919 8.30847 32.5919H31.6949C33.9773 32.5919 35.6658 30.5943 35.5902 28.4279C35.5176 26.3465 35.6119 23.6509 36.2905 21.4526C36.9715 19.2479 38.1197 17.8513 40 17.6719V15.6475C38.1197 15.4682 36.9715 14.0716 36.2905 11.8669C35.6119 9.66889 35.5176 6.97296 35.5902 4.89161C35.6658 2.72551 33.9773 0.727539 31.6949 0.727539H8.3078H8.30814ZM27.1186 20.3421C27.1186 23.3252 24.8936 25.1343 21.201 25.1343H14.9153C14.7354 25.1343 14.563 25.0629 14.4359 24.9357C14.3087 24.8086 14.2373 24.6362 14.2373 24.4564V8.86313C14.2373 8.68332 14.3087 8.51088 14.4359 8.38374C14.563 8.25659 14.7354 8.18517 14.9153 8.18517H21.1651C24.2441 8.18517 26.2647 9.85296 26.2647 12.4136C26.2647 14.2109 24.9054 15.8201 23.1736 16.1018V16.1957C25.5312 16.4543 27.1186 18.0869 27.1186 20.3421ZM20.5156 10.3343H16.9315V15.3967H19.9502C22.2837 15.3967 23.5705 14.457 23.5705 12.7774C23.5705 11.2035 22.4641 10.3343 20.5156 10.3343ZM16.9315 17.4055V22.9845H20.6475C23.077 22.9845 24.3641 22.0096 24.3641 20.1774C24.3641 18.3448 23.041 17.4052 20.4912 17.4052L16.9315 17.4055Z" fill="black"/>
</svg>
