<svg width="40" height="40" viewBox="0 0 40 40" fill="none" xmlns="http://www.w3.org/2000/svg">
<path fill-rule="evenodd" clip-rule="evenodd" d="M8.30814 4.06779C6.02576 4.06779 4.33695 6.06542 4.41254 8.23186C4.48509 10.3132 4.39085 13.0088 3.7122 15.2071C3.03153 17.4119 1.88034 18.8085 0 18.9878V21.0122C1.88034 21.1915 3.03153 22.5881 3.7122 24.7929C4.39085 26.9912 4.48509 29.6868 4.41254 31.7681C4.33695 33.9342 6.02576 35.9322 8.30847 35.9322H31.6949C33.9773 35.9322 35.6658 33.9346 35.5902 31.7681C35.5176 29.6868 35.6119 26.9912 36.2905 24.7929C36.9715 22.5881 38.1197 21.1915 40 21.0122V18.9878C38.1197 18.8085 36.9715 17.4119 36.2905 15.2071C35.6119 13.0092 35.5176 10.3132 35.5902 8.23186C35.6658 6.06576 33.9773 4.06779 31.6949 4.06779H8.3078H8.30814ZM27.1186 23.6824C27.1186 26.6654 24.8936 28.4746 21.201 28.4746H14.9153C14.7354 28.4746 14.563 28.4031 14.4359 28.276C14.3087 28.1489 14.2373 27.9764 14.2373 27.7966V12.2034C14.2373 12.0236 14.3087 11.8511 14.4359 11.724C14.563 11.5969 14.7354 11.5254 14.9153 11.5254H21.1651C24.2441 11.5254 26.2647 13.1932 26.2647 15.7539C26.2647 17.5512 24.9054 19.1603 23.1736 19.442V19.5359C25.5312 19.7946 27.1186 21.4271 27.1186 23.6824ZM20.5156 13.6746H16.9315V18.7369H19.9502C22.2837 18.7369 23.5705 17.7973 23.5705 16.1176C23.5705 14.5437 22.4641 13.6746 20.5156 13.6746ZM16.9315 20.7458V26.3247H20.6475C23.077 26.3247 24.3641 25.3498 24.3641 23.5176C24.3641 21.6851 23.041 20.7454 20.4912 20.7454L16.9315 20.7458Z" fill="white"/>
</svg>
