<svg width="40" height="24" viewBox="0 0 40 24" fill="none" xmlns="http://www.w3.org/2000/svg">
<rect x="0.589966" width="39.41" height="24" rx="4" fill="black" fill-opacity="0.25"/>
<path d="M11.095 7.996H13.095M12.095 8.996V13.996M14.806 7.996L14.861 13.989M16.59 11C16.923 11.333 17.09 11.667 17.09 12V14M18.916 8V13.996M14.974 7.996C16.648 7.996 17.09 7.996 17.09 9.496C17.09 10.996 16.648 10.996 14.974 10.996M9.79497 12.803C9.70497 13.251 9.51797 14.013 8.55397 14.006C7.58997 14 7.08997 13.013 7.08997 11.5V10.5C7.08997 8.93 7.58997 8 8.55397 8.006C9.51797 8.012 9.68797 8.604 9.79397 9.348M19.143 14H21.096" stroke="white" stroke-opacity="0.65" stroke-width="1.2" stroke-linecap="square"/>
<path d="M26.3651 15.5V5.31818H27.9014V10.1804H28.0256L32.2962 5.31818H34.2302L30.1237 9.90199L34.2451 15.5H32.3957L29.1045 10.951L27.9014 12.3331V15.5H26.3651Z" fill="white" fill-opacity="0.65"/>
</svg>
